<?xml version="1.0" encoding="UTF-8"?><!DOCTYPE svg PUBLIC "-//W3C//DTD SVG 1.1//EN" "http://www.w3.org/Graphics/SVG/1.1/DTD/svg11.dtd"><svg xmlns="http://www.w3.org/2000/svg" xmlns:xlink="http://www.w3.org/1999/xlink" version="1.1" width="24" height="24" viewBox="0 0 24 24"><path d="M15.82,14L19.82,18H22V14M2,18H5V14H2M3.28,4L2,5.27L4.44,7.71C2.93,8.61 2,10.24 2,12H4C4,10.76 4.77,9.64 5.93,9.2L10.73,14H7V18H14.73L18.73,22L20,20.72M10,3V4C10,5.09 9.4,6.1 8.45,6.62L9.89,8.07C11.21,7.13 12,5.62 12,4V3H10Z" /></svg>